<mxfile host="65bd71144e">
    <diagram id="Q7u4f5cjRTNcx4XCTTsZ" name="Page-1">
        <mxGraphModel dx="1335" dy="997" grid="1" gridSize="10" guides="1" tooltips="1" connect="1" arrows="1" fold="1" page="1" pageScale="1" pageWidth="850" pageHeight="1100" math="0" shadow="0">
            <root>
                <mxCell id="0"/>
                <mxCell id="1" parent="0"/>
                <mxCell id="8" value="" style="edgeStyle=none;html=1;endArrow=none;endFill=0;exitX=0.5;exitY=1;exitDx=0;exitDy=0;entryX=0.5;entryY=0;entryDx=0;entryDy=0;" parent="1" source="2" target="17" edge="1">
                    <mxGeometry relative="1" as="geometry">
                        <mxPoint x="349.3103448275863" y="180" as="sourcePoint"/>
                    </mxGeometry>
                </mxCell>
                <mxCell id="2" value="Main" style="rounded=0;whiteSpace=wrap;html=1;" parent="1" vertex="1">
                    <mxGeometry x="300" y="10" width="160" height="60" as="geometry"/>
                </mxCell>
                <mxCell id="9" value="" style="edgeStyle=none;html=1;endArrow=none;endFill=0;exitX=0.5;exitY=1;exitDx=0;exitDy=0;" parent="1" source="3" edge="1">
                    <mxGeometry relative="1" as="geometry">
                        <mxPoint x="398" y="622.9299999999998" as="sourcePoint"/>
                        <mxPoint x="382.5" y="672.9300000000001" as="targetPoint"/>
                    </mxGeometry>
                </mxCell>
                <mxCell id="3" value="missionCommander&lt;br&gt;&lt;br&gt;-determine control authority&lt;br&gt;-determine system state&lt;br&gt;&lt;ul&gt;&lt;li&gt;lookForBall&lt;/li&gt;&lt;li&gt;moveToBall&lt;/li&gt;&lt;li&gt;captureBall&lt;/li&gt;&lt;li&gt;lookForGoal&lt;/li&gt;&lt;li&gt;moveToGoal&lt;/li&gt;&lt;li&gt;scoreGoal&lt;/li&gt;&lt;li&gt;&lt;i&gt;manualTesting&lt;/i&gt;&lt;/li&gt;&lt;li&gt;&lt;i&gt;automatedAssist&lt;/i&gt;&lt;/li&gt;&lt;/ul&gt;" style="rounded=0;whiteSpace=wrap;html=1;align=left;" parent="1" vertex="1">
                    <mxGeometry x="297.5" y="370" width="170" height="260" as="geometry"/>
                </mxCell>
                <mxCell id="41" style="edgeStyle=none;html=1;entryX=0.5;entryY=0;entryDx=0;entryDy=0;endArrow=none;endFill=0;" parent="1" edge="1">
                    <mxGeometry relative="1" as="geometry">
                        <mxPoint x="383.31459758879123" y="702.9300000000001" as="sourcePoint"/>
                        <mxPoint x="385" y="765" as="targetPoint"/>
                    </mxGeometry>
                </mxCell>
                <mxCell id="48" style="edgeStyle=none;html=1;entryX=1;entryY=0.5;entryDx=0;entryDy=0;fontColor=#000000;endArrow=none;endFill=0;exitX=0;exitY=0.5;exitDx=0;exitDy=0;" parent="1" source="4" target="5" edge="1">
                    <mxGeometry relative="1" as="geometry"/>
                </mxCell>
                <mxCell id="4" value="flightDirector: manage flight maneuvers based on system state." style="rounded=0;whiteSpace=wrap;html=1;" parent="1" vertex="1">
                    <mxGeometry x="257.5" y="670.0000000000001" width="250" height="60" as="geometry"/>
                </mxCell>
                <mxCell id="47" style="edgeStyle=none;html=1;entryX=0;entryY=0.25;entryDx=0;entryDy=0;fontColor=#000000;endArrow=none;endFill=0;" parent="1" source="5" target="3" edge="1">
                    <mxGeometry relative="1" as="geometry"/>
                </mxCell>
                <mxCell id="5" value="groundStation" style="rounded=0;whiteSpace=wrap;html=1;verticalAlign=top;" parent="1" vertex="1">
                    <mxGeometry x="20" y="580" width="190" height="120" as="geometry"/>
                </mxCell>
                <mxCell id="63" style="edgeStyle=none;html=1;entryX=0;entryY=0.5;entryDx=0;entryDy=0;fontColor=#000000;endArrow=none;endFill=0;" parent="1" source="10" target="62" edge="1">
                    <mxGeometry relative="1" as="geometry"/>
                </mxCell>
                <mxCell id="10" value="flightActions: execute control inputs" style="rounded=0;whiteSpace=wrap;html=1;verticalAlign=top;" parent="1" vertex="1">
                    <mxGeometry x="250" y="922.93" width="270" height="177.07" as="geometry"/>
                </mxCell>
                <mxCell id="30" value="" style="edgeStyle=none;html=1;endArrow=none;endFill=0;entryX=0.5;entryY=0;entryDx=0;entryDy=0;" parent="1" source="11" target="10" edge="1">
                    <mxGeometry relative="1" as="geometry">
                        <mxPoint x="385" y="885" as="sourcePoint"/>
                    </mxGeometry>
                </mxCell>
                <mxCell id="11" value="flightManeuvers: manage flight maneuvers based on sensors.&amp;nbsp; set control inputs.&amp;nbsp;" style="rounded=0;whiteSpace=wrap;html=1;verticalAlign=top;" parent="1" vertex="1">
                    <mxGeometry x="257.5" y="760" width="250" height="120" as="geometry"/>
                </mxCell>
                <mxCell id="13" value="controls" style="rounded=0;whiteSpace=wrap;html=1;" parent="1" vertex="1">
                    <mxGeometry x="375" y="1032.9299999999998" width="90" height="60" as="geometry"/>
                </mxCell>
                <mxCell id="14" value="pid" style="rounded=0;whiteSpace=wrap;html=1;" parent="1" vertex="1">
                    <mxGeometry x="265" y="962.93" width="90" height="60" as="geometry"/>
                </mxCell>
                <mxCell id="15" value="360" style="rounded=0;whiteSpace=wrap;html=1;" parent="1" vertex="1">
                    <mxGeometry x="280" y="805" width="55" height="60" as="geometry"/>
                </mxCell>
                <mxCell id="16" value="forward" style="rounded=0;whiteSpace=wrap;html=1;" parent="1" vertex="1">
                    <mxGeometry x="345" y="805" width="60" height="60" as="geometry"/>
                </mxCell>
                <mxCell id="54" style="edgeStyle=none;html=1;entryX=0.5;entryY=0;entryDx=0;entryDy=0;fontColor=#000000;endArrow=none;endFill=0;" parent="1" source="17" target="49" edge="1">
                    <mxGeometry relative="1" as="geometry"/>
                </mxCell>
                <mxCell id="61" style="edgeStyle=none;html=1;entryX=1.021;entryY=0.3;entryDx=0;entryDy=0;entryPerimeter=0;fontColor=#000000;endArrow=none;endFill=0;" parent="1" source="17" target="55" edge="1">
                    <mxGeometry relative="1" as="geometry"/>
                </mxCell>
                <mxCell id="17" value="sensors" style="rounded=0;whiteSpace=wrap;html=1;verticalAlign=top;" parent="1" vertex="1">
                    <mxGeometry x="250" y="120" width="260" height="120" as="geometry"/>
                </mxCell>
                <mxCell id="39" style="edgeStyle=none;html=1;entryX=0.923;entryY=0.667;entryDx=0;entryDy=0;entryPerimeter=0;endArrow=none;endFill=0;" parent="1" source="20" target="17" edge="1">
                    <mxGeometry relative="1" as="geometry"/>
                </mxCell>
                <mxCell id="20" value="hardware" style="rounded=0;whiteSpace=wrap;html=1;verticalAlign=top;" parent="1" vertex="1">
                    <mxGeometry x="600" y="100" width="210" height="200" as="geometry"/>
                </mxCell>
                <mxCell id="21" value="led" style="rounded=0;whiteSpace=wrap;html=1;" parent="1" vertex="1">
                    <mxGeometry x="610" y="140" width="90" height="30" as="geometry"/>
                </mxCell>
                <mxCell id="22" value="wlan" style="rounded=0;whiteSpace=wrap;html=1;" parent="1" vertex="1">
                    <mxGeometry x="710" y="140" width="90" height="30" as="geometry"/>
                </mxCell>
                <mxCell id="23" value="uart" style="rounded=0;whiteSpace=wrap;html=1;" parent="1" vertex="1">
                    <mxGeometry x="610" y="180" width="90" height="30" as="geometry"/>
                </mxCell>
                <mxCell id="24" value="camera" style="rounded=0;whiteSpace=wrap;html=1;" parent="1" vertex="1">
                    <mxGeometry x="710" y="180" width="90" height="30" as="geometry"/>
                </mxCell>
                <mxCell id="25" value="irSensor" style="rounded=0;whiteSpace=wrap;html=1;" parent="1" vertex="1">
                    <mxGeometry x="610" y="220" width="90" height="30" as="geometry"/>
                </mxCell>
                <mxCell id="26" value="servo" style="rounded=0;whiteSpace=wrap;html=1;" parent="1" vertex="1">
                    <mxGeometry x="710" y="220" width="90" height="30" as="geometry"/>
                </mxCell>
                <mxCell id="28" value="imuSensor" style="rounded=0;whiteSpace=wrap;html=1;" parent="1" vertex="1">
                    <mxGeometry x="610" y="260" width="90" height="30" as="geometry"/>
                </mxCell>
                <mxCell id="29" value="hover" style="rounded=0;whiteSpace=wrap;html=1;" parent="1" vertex="1">
                    <mxGeometry x="415" y="805" width="60" height="60" as="geometry"/>
                </mxCell>
                <mxCell id="31" value="comms&lt;br&gt;" style="rounded=0;whiteSpace=wrap;html=1;verticalAlign=top;" parent="1" vertex="1">
                    <mxGeometry x="600" y="385" width="210" height="70" as="geometry"/>
                </mxCell>
                <mxCell id="32" value="WiFi&lt;span style=&quot;color: rgba(0 , 0 , 0 , 0) ; font-family: monospace ; font-size: 0px&quot;&gt;%3CmxGraphModel%3E%3Croot%3E%3CmxCell%20id%3D%220%22%2F%3E%3CmxCell%20id%3D%221%22%20parent%3D%220%22%2F%3E%3CmxCell%20id%3D%222%22%20value%3D%22servo%22%20style%3D%22rounded%3D0%3BwhiteSpace%3Dwrap%3Bhtml%3D1%3B%22%20vertex%3D%221%22%20parent%3D%221%22%3E%3CmxGeometry%20x%3D%22660%22%20y%3D%22290%22%20width%3D%2290%22%20height%3D%2230%22%20as%3D%22geometry%22%2F%3E%3C%2FmxCell%3E%3C%2Froot%3E%3C%2FmxGraphModel%3E&lt;/span&gt;" style="rounded=0;whiteSpace=wrap;html=1;" parent="1" vertex="1">
                    <mxGeometry x="610" y="415" width="90" height="30" as="geometry"/>
                </mxCell>
                <mxCell id="33" value="mavlink" style="rounded=0;whiteSpace=wrap;html=1;" parent="1" vertex="1">
                    <mxGeometry x="710" y="415" width="90" height="30" as="geometry"/>
                </mxCell>
                <mxCell id="35" value="collectData" style="rounded=0;whiteSpace=wrap;html=1;verticalAlign=top;" parent="1" vertex="1">
                    <mxGeometry x="280" y="150" width="205" height="74" as="geometry"/>
                </mxCell>
                <mxCell id="40" style="edgeStyle=none;html=1;entryX=0.5;entryY=0;entryDx=0;entryDy=0;endArrow=none;endFill=0;exitX=0.5;exitY=1;exitDx=0;exitDy=0;" parent="1" source="20" target="31" edge="1">
                    <mxGeometry relative="1" as="geometry">
                        <mxPoint x="610" y="182.28209191759106" as="sourcePoint"/>
                        <mxPoint x="449.98" y="140.03999999999996" as="targetPoint"/>
                    </mxGeometry>
                </mxCell>
                <mxCell id="42" value="sendStatus/getCommands" style="rounded=0;whiteSpace=wrap;html=1;" parent="1" vertex="1">
                    <mxGeometry x="30" y="650" width="170" height="40" as="geometry"/>
                </mxCell>
                <mxCell id="43" value="comms" style="rounded=0;whiteSpace=wrap;html=1;fillColor=#f5f5f5;strokeColor=#666666;gradientColor=#b3b3b3;fontColor=#000000;" parent="1" vertex="1">
                    <mxGeometry x="30" y="610" width="90" height="30" as="geometry"/>
                </mxCell>
                <mxCell id="44" value="hw" style="rounded=0;whiteSpace=wrap;html=1;fillColor=#f5f5f5;strokeColor=#666666;gradientColor=#b3b3b3;fontColor=#000000;" parent="1" vertex="1">
                    <mxGeometry x="285" y="178" width="90" height="30" as="geometry"/>
                </mxCell>
                <mxCell id="45" value="comms" style="rounded=0;whiteSpace=wrap;html=1;fillColor=#f5f5f5;strokeColor=#666666;gradientColor=#b3b3b3;fontColor=#000000;" parent="1" vertex="1">
                    <mxGeometry x="385" y="178" width="90" height="30" as="geometry"/>
                </mxCell>
                <mxCell id="46" value="comms" style="rounded=0;whiteSpace=wrap;html=1;fillColor=#f5f5f5;strokeColor=#666666;gradientColor=#b3b3b3;fontColor=#000000;" parent="1" vertex="1">
                    <mxGeometry x="262.5" y="1035" width="97.5" height="50" as="geometry"/>
                </mxCell>
                <mxCell id="60" value="" style="edgeStyle=none;html=1;fontColor=#000000;endArrow=none;endFill=0;" parent="1" source="49" target="3" edge="1">
                    <mxGeometry relative="1" as="geometry"/>
                </mxCell>
                <mxCell id="49" value="processing" style="rounded=0;whiteSpace=wrap;html=1;verticalAlign=top;" parent="1" vertex="1">
                    <mxGeometry x="315" y="265" width="130" height="80" as="geometry"/>
                </mxCell>
                <mxCell id="53" value="parse sensor data" style="rounded=0;whiteSpace=wrap;html=1;" parent="1" vertex="1">
                    <mxGeometry x="335" y="295" width="90" height="30" as="geometry"/>
                </mxCell>
                <mxCell id="59" style="edgeStyle=none;html=1;entryX=0;entryY=0.5;entryDx=0;entryDy=0;fontColor=#000000;endArrow=none;endFill=0;" parent="1" source="55" target="49" edge="1">
                    <mxGeometry relative="1" as="geometry"/>
                </mxCell>
                <mxCell id="67" style="edgeStyle=none;html=1;endArrow=none;endFill=0;" edge="1" parent="1" source="55" target="64">
                    <mxGeometry relative="1" as="geometry"/>
                </mxCell>
                <mxCell id="55" value="dataClasses" style="rounded=0;whiteSpace=wrap;html=1;verticalAlign=top;" parent="1" vertex="1">
                    <mxGeometry x="20" y="108" width="170" height="170" as="geometry"/>
                </mxCell>
                <mxCell id="56" value="rawData" style="rounded=0;whiteSpace=wrap;html=1;" parent="1" vertex="1">
                    <mxGeometry x="30" y="138" width="150" height="30" as="geometry"/>
                </mxCell>
                <mxCell id="57" value="processedData" style="rounded=0;whiteSpace=wrap;html=1;" parent="1" vertex="1">
                    <mxGeometry x="30" y="183" width="150" height="30" as="geometry"/>
                </mxCell>
                <mxCell id="58" value="GroundStationCommand" style="rounded=0;whiteSpace=wrap;html=1;" parent="1" vertex="1">
                    <mxGeometry x="30" y="228" width="150" height="30" as="geometry"/>
                </mxCell>
                <mxCell id="62" value="Control Switcher&lt;br&gt;blank out controls if required from the system state.&lt;br&gt;ex: autonomous level, but manual yaw, throttle" style="rounded=0;whiteSpace=wrap;html=1;verticalAlign=top;" parent="1" vertex="1">
                    <mxGeometry x="570" y="942.9" width="220" height="80.03" as="geometry"/>
                </mxCell>
                <mxCell id="65" style="edgeStyle=none;html=1;entryX=0;entryY=0.75;entryDx=0;entryDy=0;fontColor=#000000;endArrow=none;endFill=0;" parent="1" source="64" target="49" edge="1">
                    <mxGeometry relative="1" as="geometry"/>
                </mxCell>
                <mxCell id="64" value="image processing" style="rounded=0;whiteSpace=wrap;html=1;verticalAlign=top;" parent="1" vertex="1">
                    <mxGeometry x="30" y="370" width="170" height="150" as="geometry"/>
                </mxCell>
                <mxCell id="66" value="lidarSensor" style="rounded=0;whiteSpace=wrap;html=1;" parent="1" vertex="1">
                    <mxGeometry x="710" y="260" width="90" height="30" as="geometry"/>
                </mxCell>
                <mxCell id="CNrXOmuiP04KgK6dPjY7-66" value="Powered Light:&amp;nbsp; Purple&lt;br&gt;Connected To Gnd Station: Green&lt;br&gt;Not Connected to Gnd station: Light green&lt;br&gt;Fail: Red" style="text;html=1;strokeColor=none;fillColor=none;align=left;verticalAlign=middle;whiteSpace=wrap;rounded=0;" parent="1" vertex="1">
                    <mxGeometry x="10" y="20" width="240" height="30" as="geometry"/>
                </mxCell>
                <mxCell id="68" value="findYellowGoal" style="rounded=0;whiteSpace=wrap;html=1;" vertex="1" parent="1">
                    <mxGeometry x="40" y="405" width="150" height="30" as="geometry"/>
                </mxCell>
                <mxCell id="69" value="findOrangeGoal" style="rounded=0;whiteSpace=wrap;html=1;" vertex="1" parent="1">
                    <mxGeometry x="40" y="445" width="150" height="30" as="geometry"/>
                </mxCell>
                <mxCell id="70" value="findBall" style="rounded=0;whiteSpace=wrap;html=1;" vertex="1" parent="1">
                    <mxGeometry x="40" y="485" width="150" height="30" as="geometry"/>
                </mxCell>
            </root>
        </mxGraphModel>
    </diagram>
</mxfile>